<svg width="55" height="54" viewBox="0 0 55 54" fill="none" xmlns="http://www.w3.org/2000/svg">
<ellipse cx="27.5" cy="27" rx="27.5" ry="27" fill="black"/>
<path d="M35.2734 28.5195V25.9609C35.2734 22.9531 35.2083 19.418 35.0781 15.3555C35.0521 14.6654 33.6263 14.2031 30.8008 13.9688C30.6185 13.513 30.5273 13.0964 30.5273 12.7188C30.5273 12.4844 30.6185 12.0872 30.8008 11.5273C32.7799 11.6055 34.7656 11.6445 36.7578 11.6445C38.763 11.6445 40.8203 11.6055 42.9297 11.5273C43.112 12.0872 43.2031 12.4844 43.2031 12.7188C43.2031 13.0964 43.112 13.513 42.9297 13.9688C40.2344 14.2292 38.8737 14.6914 38.8477 15.3555C38.6784 18.1029 38.5938 22.1198 38.5938 27.4062C38.5938 33.3698 38.6784 38.194 38.8477 41.8789L37.2461 41.918L18.7109 19.2422C18.7109 19.4766 18.7044 19.9062 18.6914 20.5312C18.6784 21.1432 18.6719 21.6185 18.6719 21.957C18.6719 28.2461 18.7565 33.6042 18.9258 38.0312C18.9518 38.7344 20.3776 39.2031 23.2031 39.4375C23.3854 39.8932 23.4766 40.3099 23.4766 40.6875C23.4766 40.974 23.3854 41.3971 23.2031 41.957C21.1979 41.8789 19.2122 41.8398 17.2461 41.8398C15.2409 41.8398 13.1836 41.8789 11.0742 41.957C10.8919 41.3971 10.8008 40.974 10.8008 40.6875C10.8008 40.3099 10.8919 39.8932 11.0742 39.4375C13.7695 39.1771 15.1302 38.7083 15.1562 38.0312C15.3125 35.2969 15.3906 31.2865 15.3906 26C15.3906 21.9505 15.3385 18.3372 15.2344 15.1602C14.388 14.4961 13.099 14.099 11.3672 13.9688C11.1719 13.6172 11.0742 13.2135 11.0742 12.7578C11.0742 12.276 11.1979 11.8398 11.4453 11.4492C14.1667 11.5794 17.6042 11.6445 21.7578 11.6445L35.2734 28.5195ZM37.793 27.4062C37.793 23.4609 37.8776 19.444 38.0469 15.3555C38.099 14.1836 39.5378 13.4674 42.3633 13.207C42.4674 12.9857 42.4674 12.6797 42.3633 12.2891C39.9023 12.3672 38.1576 12.4062 37.1289 12.4062C35.5013 12.4062 33.6458 12.3672 31.5625 12.2891C31.4583 12.6797 31.4583 12.9857 31.5625 13.207C34.4141 13.4674 35.8529 14.1836 35.8789 15.3555C36.0091 19.418 36.0742 22.9531 36.0742 25.9609C36.0742 27.7188 36.0482 30.0885 35.9961 33.0703L19.1602 12.4453C16.2305 12.4453 13.8021 12.3932 11.875 12.2891C11.7708 12.6016 11.7708 12.9076 11.875 13.207C13.5547 13.3112 14.9414 13.8451 16.0352 14.8086C16.1393 17.9727 16.1914 21.7031 16.1914 26C16.1914 29.9453 16.1133 33.9557 15.957 38.0312C15.9049 39.2161 14.4661 39.9388 11.6406 40.1992C11.5365 40.4076 11.5365 40.7135 11.6406 41.1172C14.0885 41.0391 15.8333 41 16.875 41C18.5026 41 20.3581 41.0391 22.4414 41.1172C22.5456 40.7135 22.5456 40.4076 22.4414 40.1992C19.5898 39.9388 18.151 39.2161 18.125 38.0312C17.9948 33.9818 17.9297 30.4531 17.9297 27.4453C17.9297 24.0078 17.9688 20.6029 18.0469 17.2305H18.2422L37.6367 41.1172L38.0078 41.0781C37.8646 38.0182 37.793 33.4609 37.793 27.4062Z" fill="white"/>
</svg>
